<?xml version="1.0" standalone="no"?>
<!DOCTYPE svg PUBLIC "-//W3C//DTD SVG 20010904//EN"
 "http://www.w3.org/TR/2001/REC-SVG-20010904/DTD/svg10.dtd">
<svg version="1.0" xmlns="http://www.w3.org/2000/svg"
 width="512.000000pt" height="512.000000pt" viewBox="0 0 512.000000 512.000000"
 preserveAspectRatio="xMidYMid meet">
<metadata>
Created by potrace 1.14, written by Peter Selinger 2001-2017
</metadata>
<g transform="translate(0.000000,512.000000) scale(0.100000,-0.100000)"
fill="#000000" stroke="none">
<path d="M2056 4944 c-13 -13 -16 -43 -16 -167 l0 -152 -64 0 c-78 0 -110 -19
-144 -88 -32 -64 -24 -118 27 -169 63 -62 153 -64 219 -3 l37 33 5 179 5 178
94 5 c75 4 96 9 105 23 8 12 8 22 0 35 -9 14 -29 18 -108 20 -86 2 -97 5 -94
20 3 14 18 17 93 20 49 2 95 8 102 14 17 14 16 33 -3 52 -12 13 -39 16 -129
16 -90 0 -117 -3 -129 -16z"/>
<path d="M3005 4488 c-137 -9 -286 -38 -389 -75 -111 -40 -275 -123 -341 -173
-92 -70 -240 -226 -301 -316 -162 -243 -214 -462 -214 -915 l0 -216 -65 -42
c-151 -98 -278 -280 -322 -463 -24 -101 -25 -481 0 -579 59 -239 188 -398 412
-508 142 -70 176 -76 415 -76 166 1 217 4 269 19 200 55 375 187 451 339 18
34 40 76 50 92 10 17 26 57 36 90 17 52 19 95 19 335 0 270 -1 276 -26 352
-43 126 -93 204 -193 303 -101 99 -181 148 -305 185 l-73 23 4 231 c6 280 16
320 126 513 68 117 269 254 432 294 33 8 102 13 170 13 93 -1 131 -6 198 -27
249 -78 409 -243 484 -502 16 -55 21 -110 25 -257 l6 -187 -24 -5 c-13 -3 -51
-7 -85 -11 -51 -5 -136 -30 -239 -71 -11 -4 -45 -23 -75 -42 -165 -104 -280
-257 -342 -452 -22 -72 -23 -89 -23 -365 l0 -290 33 -95 c18 -52 52 -126 74
-164 39 -66 171 -216 190 -216 5 0 24 -11 42 -25 52 -39 195 -101 276 -120 99
-22 349 -31 468 -16 195 24 352 99 483 230 139 139 211 298 231 511 16 174 5
447 -22 540 -32 112 -87 215 -155 288 -33 36 -66 73 -73 83 -18 25 -126 102
-184 130 l-48 23 0 240 c0 337 -19 439 -116 644 -112 237 -250 399 -459 536
-236 156 -495 217 -820 194z m341 -93 c247 -44 464 -160 642 -344 136 -140
234 -316 290 -521 26 -95 26 -95 30 -566 l3 -471 -73 19 c-56 15 -94 18 -165
15 l-93 -5 0 338 c0 339 -6 434 -37 565 -110 474 -517 855 -1003 939 l-75 13
55 11 c124 26 301 28 426 7z m289 -1607 c-58 -41 -190 -184 -224 -240 -45 -78
-78 -162 -96 -247 -18 -87 -21 -510 -4 -593 37 -184 157 -375 297 -478 34 -24
60 -45 59 -47 -5 -4 -87 30 -142 59 -65 34 -186 146 -234 217 -21 31 -50 83
-64 116 -51 115 -57 160 -57 420 0 274 8 323 70 450 73 150 175 252 324 326
88 43 118 50 71 17z m235 -143 l0 -164 -52 -34 c-110 -70 -210 -208 -237 -327
-16 -69 -13 -209 5 -271 43 -143 152 -277 276 -338 67 -33 178 -61 243 -61
232 0 461 178 520 405 23 90 20 210 -9 300 -31 96 -73 161 -152 234 l-64 58 0
162 c0 88 4 161 8 161 12 0 102 -58 150 -98 89 -73 182 -222 218 -347 14 -46
18 -112 22 -293 4 -281 -6 -349 -75 -492 -38 -79 -59 -108 -132 -181 -73 -73
-102 -94 -182 -133 -111 -54 -201 -76 -317 -76 -309 0 -583 200 -679 495 -23
72 -26 99 -30 286 -3 124 -1 240 6 289 28 210 135 387 304 502 53 36 150 86
170 87 4 1 7 -73 7 -164z m413 -242 c71 -34 157 -97 157 -117 0 -6 -141 -152
-313 -324 l-314 -314 -38 40 c-78 83 -118 185 -117 301 0 172 86 317 237 400
73 40 125 51 225 48 83 -2 104 -7 163 -34z"/>
<path d="M1210 3932 c-21 -17 -21 -21 -18 -250 2 -127 1 -231 -2 -229 -3 2
-23 11 -45 21 -101 46 -240 -32 -260 -147 -13 -68 2 -122 48 -173 37 -40 51
-48 102 -59 34 -6 75 -8 93 -4 54 12 108 54 131 101 20 42 21 59 21 351 l0
307 123 1 c67 0 145 4 172 7 46 6 50 9 53 37 6 50 -12 55 -214 55 -159 0 -185
-2 -204 -18z"/>
<path d="M2010 465 c-417 -17 -641 -39 -694 -67 -28 -15 -6 -25 100 -42 242
-41 767 -60 1634 -60 1073 0 1740 36 1740 93 0 25 -219 53 -570 72 -316 17
-1821 20 -2210 4z"/>
</g>
</svg>
